<svg width="14" height="14" viewBox="0 0 14 14" fill="none" xmlns="http://www.w3.org/2000/svg">
<path d="M4.64974 9.00199C4.98145 9.00199 5.2513 8.76565 5.2513 8.47516C5.2513 8.18465 4.98145 7.94831 4.64974 7.94831C4.31804 7.94831 4.04818 8.18465 4.04818 8.47516C4.04818 8.62794 3.92574 8.75184 3.77475 8.75184C3.62376 8.75184 3.50131 8.62794 3.50131 8.47516C3.50131 7.96815 3.87466 7.54184 4.37631 7.42613V7.28223C4.37631 7.12945 4.49875 7.00555 4.64974 7.00555C4.80073 7.00555 4.92318 7.12945 4.92318 7.28223V7.42613C5.42482 7.54184 5.79817 7.96815 5.79817 8.47516C5.79817 9.07077 5.28299 9.55535 4.64974 9.55535C4.31804 9.55535 4.04818 9.79168 4.04818 10.0822C4.04818 10.3727 4.31804 10.609 4.64974 10.609C4.98145 10.609 5.2513 10.3727 5.2513 10.0822C5.2513 9.92941 5.37374 9.80552 5.52474 9.80552C5.67573 9.80552 5.79817 9.92941 5.79817 10.0822C5.79817 10.5892 5.42482 11.0155 4.92318 11.1312V11.2508C4.92318 11.4035 4.80073 11.5274 4.64974 11.5274C4.49875 11.5274 4.37631 11.4035 4.37631 11.2508V11.1312C3.87466 11.0155 3.50131 10.5892 3.50131 10.0822C3.50131 9.48656 4.01649 9.00199 4.64974 9.00199Z" fill="black"/>
<path d="M1.65482 7.35628C2.01201 6.7931 2.51525 6.34245 3.11011 6.0531C3.24625 5.98686 3.40963 6.04485 3.47504 6.18258C3.54047 6.32031 3.48319 6.4856 3.34707 6.55181C2.31044 7.05603 1.64066 8.13339 1.64066 9.29649C1.64066 9.79418 1.7619 10.2878 1.99123 10.7239C2.06216 10.8588 2.0116 11.0263 1.87828 11.0981C1.83737 11.1201 1.7934 11.1306 1.75009 11.1306C1.65225 11.1306 1.55762 11.0773 1.50845 10.9838C1.23718 10.468 1.09379 9.88449 1.09379 9.29649C1.09379 8.6059 1.28779 7.93499 1.65482 7.35628Z" fill="black"/>
<path d="M4.21988 5.69963L4.23828 5.69961C4.38927 5.69961 4.51171 5.82348 4.51171 5.97629C4.51171 6.1291 4.38927 6.25296 4.23828 6.25296L4.22245 6.25299H4.22114C4.07072 6.25299 3.94844 6.12998 3.94773 5.97761C3.94705 5.8248 4.06889 5.70035 4.21988 5.69963Z" fill="black"/>
<path d="M5.94981 12.0412C6.98641 11.5369 7.6562 10.4596 7.6562 9.29649C7.6562 8.7988 7.53495 8.30523 7.30562 7.86907C7.23469 7.73419 7.28525 7.56664 7.41858 7.49487C7.55185 7.4231 7.7175 7.47425 7.7884 7.60916C8.05968 8.12503 8.20307 8.70849 8.20307 9.29649C8.20307 9.98708 8.00907 10.658 7.64203 11.2367C7.28484 11.7999 6.78161 12.2505 6.18674 12.5399C6.14855 12.5585 6.10819 12.5673 6.06846 12.5673C5.96663 12.5673 5.8689 12.5095 5.82182 12.4104C5.75644 12.2727 5.81369 12.1074 5.94981 12.0412Z" fill="black"/>
<path d="M5.05859 12.3399L5.07443 12.3398C5.22613 12.3395 5.34841 12.4624 5.34909 12.6152C5.3498 12.768 5.22791 12.8925 5.07691 12.8932L5.05859 12.8932C4.9076 12.8932 4.78516 12.7693 4.78516 12.6166C4.78516 12.4638 4.9076 12.3399 5.05859 12.3399Z" fill="black"/>
<path d="M3.40681 4.76353C3.44008 4.68329 3.48085 4.60768 3.52829 4.53754H2.81643C2.12288 4.53754 1.55862 3.96658 1.55862 3.26482C1.55862 2.56305 2.12288 1.99209 2.81643 1.99209L5.00611 1.99209C4.8669 1.78729 4.78517 1.53953 4.78517 1.27272C4.78517 0.570955 5.34944 -6.13506e-08 6.04298 0L12.7422 5.92608e-07C13.4357 6.53958e-07 14 0.570956 14 1.27273C14 1.97449 13.4357 2.54545 12.7422 2.54545L10.5525 2.54545C10.6917 2.75025 10.7734 2.99801 10.7734 3.26482C10.7734 3.53162 10.6917 3.77938 10.5525 3.98418H11.2656C11.9592 3.98418 12.5234 4.55514 12.5234 5.25691C12.5234 5.65995 12.3371 6.0196 12.0472 6.25295C12.3371 6.4863 12.5234 6.84596 12.5234 7.249C12.5234 7.65204 12.3371 8.01169 12.0472 8.24504C12.3371 8.47839 12.5234 8.83805 12.5234 9.24109C12.5234 9.64413 12.3371 10.0038 12.0472 10.2371C12.3371 10.4705 12.5234 10.8301 12.5234 11.2332C12.5234 11.9349 11.9592 12.5059 11.2656 12.5059L8.04317 12.5059C7.19426 13.4247 5.9866 14 4.64843 14C2.08528 14 -2.24077e-07 11.89 0 9.29645C1.86497e-07 7.13788 1.44457 5.31454 3.40681 4.76353ZM2.81643 2.54545C2.4244 2.54545 2.10549 2.86817 2.10549 3.26482C2.10549 3.66146 2.4244 3.98418 2.81643 3.98418L9.51563 3.98418C9.90766 3.98418 10.2266 3.66146 10.2266 3.26482C10.2266 2.86817 9.90766 2.54545 9.51563 2.54545L2.81643 2.54545ZM12.7422 1.99209C13.1342 1.99209 13.4531 1.66937 13.4531 1.27273C13.4531 0.876078 13.1342 0.553359 12.7422 0.553359L6.04298 0.553359C5.65096 0.553359 5.33205 0.876077 5.33205 1.27272C5.33205 1.66937 5.65096 1.99209 6.04298 1.99209L12.7422 1.99209ZM11.2656 4.53754H4.56642C4.45628 4.53754 4.35082 4.56344 4.25621 4.60981C4.38555 4.59882 4.5163 4.5929 4.64843 4.5929C5.93208 4.5929 7.09583 5.12216 7.93785 5.97627H11.2656C11.6576 5.97627 11.9766 5.65355 11.9766 5.25691C11.9766 4.86026 11.6576 4.53754 11.2656 4.53754ZM11.2656 6.52963H8.40507C8.71548 6.95995 8.95547 7.4453 9.10788 7.96836H11.2656C11.6577 7.96836 11.9766 7.64567 11.9766 7.249C11.9766 6.85235 11.6577 6.52963 11.2656 6.52963ZM11.2656 8.52172H9.23345C9.27493 8.77386 9.29686 9.03258 9.29686 9.29645C9.29686 9.52184 9.28075 9.74345 9.25032 9.96045L11.2656 9.96045C11.6577 9.96045 11.9766 9.63776 11.9766 9.24109C11.9766 8.84441 11.6577 8.52172 11.2656 8.52172ZM11.2656 11.9525C11.6577 11.9525 11.9766 11.6299 11.9766 11.2332C11.9766 10.8365 11.6577 10.5138 11.2656 10.5138H9.13867C9.0007 11.0343 8.77656 11.5194 8.48262 11.9525H11.2656ZM4.64843 13.4466C6.91002 13.4466 8.74998 11.5849 8.74998 9.29645C8.74998 7.00804 6.91003 5.14626 4.64843 5.14626C2.38683 5.14626 0.546873 7.00804 0.546873 9.29645C0.546873 11.5849 2.38683 13.4466 4.64843 13.4466Z" fill="black"/>
</svg>
