<svg width="9" height="9" viewBox="0 0 9 9" fill="none" xmlns="http://www.w3.org/2000/svg">
<path d="M7.53033 2.53033C7.82322 2.23744 7.82322 1.76256 7.53033 1.46967C7.23744 1.17678 6.76256 1.17678 6.46967 1.46967L7.53033 2.53033ZM0.25 8C0.25 8.41421 0.585786 8.75 1 8.75H7.75C8.16421 8.75 8.5 8.41421 8.5 8C8.5 7.58579 8.16421 7.25 7.75 7.25H1.75V1.25C1.75 0.835786 1.41421 0.5 1 0.5C0.585786 0.5 0.25 0.835786 0.25 1.25V8ZM6.46967 1.46967L0.46967 7.46967L1.53033 8.53033L7.53033 2.53033L6.46967 1.46967Z" fill="white"/>
</svg>
