<svg width="6" height="6" viewBox="0 0 6 6" fill="none" xmlns="http://www.w3.org/2000/svg">
<path d="M5.35355 1.35355C5.54882 1.15829 5.54882 0.841709 5.35355 0.646447C5.15829 0.451184 4.84171 0.451184 4.64645 0.646447L5.35355 1.35355ZM0.5 5C0.5 5.27614 0.723858 5.5 1 5.5H5.5C5.77614 5.5 6 5.27614 6 5C6 4.72386 5.77614 4.5 5.5 4.5H1.5V0.5C1.5 0.223858 1.27614 0 1 0C0.723858 0 0.5 0.223858 0.5 0.5V5ZM4.64645 0.646447L0.646447 4.64645L1.35355 5.35355L5.35355 1.35355L4.64645 0.646447Z" fill="#1877F2"/>
</svg>
