<svg width="12" height="12" viewBox="0 0 12 12" fill="none" xmlns="http://www.w3.org/2000/svg">
<g clip-path="url(#clip0)">
<path d="M3.6615 5.25H2.4115C2.2045 5.25 2.0365 5.082 2.0365 4.875C2.0365 4.668 2.2045 4.5 2.4115 4.5H3.6615C3.8685 4.5 4.0365 4.668 4.0365 4.875C4.0365 5.082 3.8685 5.25 3.6615 5.25Z" fill="black"/>
<path d="M9.6615 5.25H5.9115C5.7045 5.25 5.5365 5.082 5.5365 4.875C5.5365 4.668 5.7045 4.5 5.9115 4.5H9.6615C9.8685 4.5 10.0365 4.668 10.0365 4.875C10.0365 5.082 9.8685 5.25 9.6615 5.25Z" fill="black"/>
<path d="M3.6615 7.25H2.4115C2.2045 7.25 2.0365 7.082 2.0365 6.875C2.0365 6.668 2.2045 6.5 2.4115 6.5H3.6615C3.8685 6.5 4.0365 6.668 4.0365 6.875C4.0365 7.082 3.8685 7.25 3.6615 7.25Z" fill="black"/>
<path d="M9.6615 7.25H5.9115C5.7045 7.25 5.5365 7.082 5.5365 6.875C5.5365 6.668 5.7045 6.5 5.9115 6.5H9.6615C9.8685 6.5 10.0365 6.668 10.0365 6.875C10.0365 7.082 9.8685 7.25 9.6615 7.25Z" fill="black"/>
<path d="M3.6615 9.25H2.4115C2.2045 9.25 2.0365 9.082 2.0365 8.875C2.0365 8.668 2.2045 8.5 2.4115 8.5H3.6615C3.8685 8.5 4.0365 8.668 4.0365 8.875C4.0365 9.082 3.8685 9.25 3.6615 9.25Z" fill="black"/>
<path d="M9.6615 9.25H5.9115C5.7045 9.25 5.5365 9.082 5.5365 8.875C5.5365 8.668 5.7045 8.5 5.9115 8.5H9.6615C9.8685 8.5 10.0365 8.668 10.0365 8.875C10.0365 9.082 9.8685 9.25 9.6615 9.25Z" fill="black"/>
<path d="M10.625 11.5H1.375C0.6165 11.5 0 10.8835 0 10.125V1.875C0 1.1165 0.6165 0.5 1.375 0.5H10.625C11.3835 0.5 12 1.1165 12 1.875V10.125C12 10.8835 11.3835 11.5 10.625 11.5ZM1.375 1.25C1.0305 1.25 0.75 1.5305 0.75 1.875V10.125C0.75 10.4695 1.0305 10.75 1.375 10.75H10.625C10.9695 10.75 11.25 10.4695 11.25 10.125V1.875C11.25 1.5305 10.9695 1.25 10.625 1.25H1.375Z" fill="black"/>
<path d="M11.625 3H0.375C0.168 3 0 2.832 0 2.625C0 2.418 0.168 2.25 0.375 2.25H11.625C11.832 2.25 12 2.418 12 2.625C12 2.832 11.832 3 11.625 3Z" fill="black"/>
</g>
<defs>
<clipPath id="clip0">
<rect width="12" height="12" fill="white"/>
</clipPath>
</defs>
</svg>
