<svg width="20" height="17" viewBox="0 0 20 17" fill="none" xmlns="http://www.w3.org/2000/svg">
<g opacity="0.8" clip-path="url(#clip0)">
<path d="M9.57138 9.66187C11.4268 9.66187 12.9363 8.341 12.9363 6.71753V5.73608C12.9363 4.11261 11.4268 2.79175 9.57138 2.79175C7.71598 2.79175 6.20642 4.11261 6.20642 5.73608V6.71753C6.20642 8.341 7.71598 9.66187 9.57138 9.66187ZM7.32807 5.73608C7.32807 4.65368 8.33435 3.77319 9.57138 3.77319C10.8084 3.77319 11.8147 4.65368 11.8147 5.73608V6.71753C11.8147 7.79993 10.8084 8.68042 9.57138 8.68042C8.33435 8.68042 7.32807 7.79993 7.32807 6.71753V5.73608Z" fill="black"/>
<path d="M15.4523 16.0522C15.4523 17.213 14.839 18.2984 13.7794 19.1097C12.7194 19.9213 11.2333 20.4376 9.57138 20.4376C7.90949 20.4376 6.42338 19.9213 5.36332 19.1097C4.30374 18.2984 3.69043 17.213 3.69043 16.0522C3.69043 14.8913 4.30374 13.8059 5.36332 12.9947C6.42338 12.183 7.90949 11.6667 9.57138 11.6667C11.2333 11.6667 12.7194 12.183 13.7794 12.9947C14.839 13.8059 15.4523 14.8913 15.4523 16.0522Z" stroke="black"/>
</g>
<defs>
<clipPath id="clip0">
<rect width="19.1429" height="16.75" fill="white"/>
</clipPath>
</defs>
</svg>
