<svg width="23" height="23" viewBox="0 0 23 23" fill="none" xmlns="http://www.w3.org/2000/svg">
<path d="M21.7388 9.00258L19.937 8.77354C19.7885 8.31642 19.6054 7.87558 19.3917 7.45679L20.5044 6.02408C20.9548 5.44429 20.9021 4.62587 20.3875 4.12754L18.878 2.61817C18.3749 2.09875 17.5564 2.047 16.9757 2.49646L15.5448 3.60908C15.126 3.39538 14.6852 3.21233 14.227 3.06379L13.998 1.265C13.9117 0.543375 13.2993 0 12.5739 0H10.4271C9.70161 0 9.08921 0.543375 9.00296 1.26213L8.77391 3.06379C8.3158 3.21233 7.87495 3.39442 7.45614 3.60908L6.02433 2.49646C5.44548 2.047 4.62703 2.09875 4.12771 2.61337L2.61828 4.12179C2.09884 4.62587 2.04613 5.44429 2.49656 6.02504L3.60923 7.45679C3.39456 7.87558 3.21247 8.31642 3.06392 8.77354L1.26505 9.00258C0.543398 9.08883 0 9.70121 0 10.4267V12.5733C0 13.2988 0.543398 13.9112 1.26218 13.9974L3.06392 14.2265C3.21247 14.6836 3.39552 15.1244 3.60923 15.5432L2.49656 16.9759C2.04613 17.5557 2.09884 18.3741 2.61348 18.8725L4.12292 20.3818C4.62703 20.9003 5.44452 20.952 6.02529 20.5026L7.4571 19.39C7.87591 19.6046 8.31676 19.7877 8.77391 19.9352L9.00296 21.7331C9.08921 22.4566 9.70161 23 10.4271 23H12.5739C13.2993 23 13.9117 22.4566 13.998 21.7379L14.227 19.9362C14.6842 19.7877 15.125 19.6046 15.5439 19.3909L16.9766 20.5035C17.5564 20.954 18.3749 20.9013 18.8732 20.3866L20.3827 18.8772C20.9021 18.3732 20.9548 17.5557 20.5044 16.975L19.3917 15.5432C19.6064 15.1244 19.7894 14.6836 19.937 14.2265L21.7349 13.9974C22.4566 13.9112 23 13.2988 23 12.5733V10.4267C23.001 9.70121 22.4576 9.08883 21.7388 9.00258ZM11.5005 16.2917C8.85824 16.2917 6.70861 14.1421 6.70861 11.5C6.70861 8.85787 8.85824 6.70833 11.5005 6.70833C14.1427 6.70833 16.2923 8.85787 16.2923 11.5C16.2923 14.1421 14.1427 16.2917 11.5005 16.2917Z" fill="black"/>
</svg>
