<svg width="9" height="11" viewBox="0 0 9 11" fill="none" xmlns="http://www.w3.org/2000/svg">
<path d="M8.07812 1.375H6.1875V1.03125C6.1875 0.461699 5.7258 0 5.15625 0H3.78125C3.2117 0 2.75 0.461699 2.75 1.03125V1.375H0.859375C0.384764 1.375 0 1.75976 0 2.23438V2.92188C0 3.11173 0.153893 3.26562 0.34375 3.26562H8.59375C8.78361 3.26562 8.9375 3.11173 8.9375 2.92188V2.23438C8.9375 1.75976 8.55274 1.375 8.07812 1.375ZM3.4375 1.03125C3.4375 0.841758 3.59176 0.6875 3.78125 0.6875H5.15625C5.34574 0.6875 5.5 0.841758 5.5 1.03125V1.375H3.4375V1.03125Z" fill="#E30000"/>
<path d="M0.652339 3.95312C0.591001 3.95312 0.542125 4.00439 0.545046 4.06566L0.82864 10.0177C0.854851 10.5686 1.30731 11 1.8586 11H7.07887C7.63016 11 8.08262 10.5686 8.10884 10.0177L8.39243 4.06566C8.39535 4.00439 8.34647 3.95312 8.28514 3.95312H0.652339ZM5.84374 4.8125C5.84374 4.62258 5.99757 4.46875 6.18749 4.46875C6.37741 4.46875 6.53124 4.62258 6.53124 4.8125V9.28125C6.53124 9.47117 6.37741 9.625 6.18749 9.625C5.99757 9.625 5.84374 9.47117 5.84374 9.28125V4.8125ZM4.12499 4.8125C4.12499 4.62258 4.27882 4.46875 4.46874 4.46875C4.65866 4.46875 4.81249 4.62258 4.81249 4.8125V9.28125C4.81249 9.47117 4.65866 9.625 4.46874 9.625C4.27882 9.625 4.12499 9.47117 4.12499 9.28125V4.8125ZM2.40624 4.8125C2.40624 4.62258 2.56007 4.46875 2.74999 4.46875C2.93991 4.46875 3.09374 4.62258 3.09374 4.8125V9.28125C3.09374 9.47117 2.93991 9.625 2.74999 9.625C2.56007 9.625 2.40624 9.47117 2.40624 9.28125V4.8125Z" fill="#E30000"/>
</svg>
