<svg width="12" height="12" viewBox="0 0 12 12" fill="none" xmlns="http://www.w3.org/2000/svg">
<g opacity="0.8">
<path d="M12 6C12 2.68387 9.3165 0 6 0C2.68387 0 0 2.6835 0 6C0 9.28674 2.66107 12 6 12C9.3252 12 12 9.30185 12 6ZM6 0.703125C8.92072 0.703125 11.2969 3.07928 11.2969 6C11.2969 7.06842 10.9791 8.09537 10.3898 8.96521C8.02332 6.41968 3.98099 6.4151 1.61023 8.96521C1.0209 8.09537 0.703125 7.06842 0.703125 6C0.703125 3.07928 3.07928 0.703125 6 0.703125ZM2.04877 9.52734C4.15283 7.1673 7.84772 7.16785 9.95114 9.52734C7.84003 11.8892 4.1608 11.89 2.04877 9.52734Z" fill="black"/>
<path d="M6 6.35156C7.16309 6.35156 8.10938 5.40527 8.10938 4.24219V3.53906C8.10938 2.37598 7.16309 1.42969 6 1.42969C4.83691 1.42969 3.89062 2.37598 3.89062 3.53906V4.24219C3.89062 5.40527 4.83691 6.35156 6 6.35156ZM4.59375 3.53906C4.59375 2.76361 5.22455 2.13281 6 2.13281C6.77545 2.13281 7.40625 2.76361 7.40625 3.53906V4.24219C7.40625 5.01764 6.77545 5.64844 6 5.64844C5.22455 5.64844 4.59375 5.01764 4.59375 4.24219V3.53906Z" fill="black"/>
</g>
</svg>
